<?xml version="1.0" encoding="UTF-8" standalone="no" ?>
<!DOCTYPE svg PUBLIC "-//W3C//DTD SVG 1.1//EN" "http://www.w3.org/Graphics/SVG/1.1/DTD/svg11.dtd">
<svg xmlns="http://www.w3.org/2000/svg" xmlns:xlink="http://www.w3.org/1999/xlink" version="1.1" width="1280" height="1024" viewBox="0 0 1280 1024" xml:space="preserve">
<desc>Created with Fabric.js 5.3.0</desc>
<defs></defs>

<g transform="matrix(1 0 0 1 640 512)" id="background-logo">
  <rect style="stroke:none; fill:rgb(255,255,255); fill-opacity:0;" x="-640" y="-512" width="1280" height="1024"/>
</g>

<!-- Main Icon (Grey) -->
<g transform="matrix(4.46064841007167 0 0 4.46064841007167 640 495.0248158903928)" id="logo-logo">
  <g>
    <g transform="matrix(0.917930923744532 0 0 0.9179309237445321 0 0)">
      <g>
        <g>
          <polygon style="fill:rgb(128,128,128);" points="100,100 0,100 0,95.12 95.12,95.12 95.12,-95.12 -95.12,-95.12 -95.12,0 -100,0 -100,-100 100,-100 100,100"/>
        </g>
      </g>
    </g>
  </g>
</g>

<!-- "I" Shape (Now Grey same as boundary) -->
<g transform="matrix(1.9211538461538462 0 0 1.9211538461538462 639.7039473684212 501.80685552995163)" id="tagline-logo">
  <g>
    <g>
      <g id="tagline-path">
        <path style="fill:rgb(128,128,128);" transform="translate(-47.085, 109.865)" d="M 72.2 -219.73 L 21.97 -219.73 L 21.97 -200.9 L 36.1 -200.9 L 36.1 -18.83 L 21.97 -18.83 L 21.97 0 L 72.2 0 L 72.2 -18.83 L 58.07 -18.83 L 58.07 -200.9 L 72.2 -200.9 Z"/>
      </g>
    </g>
  </g>
</g>

</svg>
